<svg width="120" height="120" viewBox="0 0 120 120" xmlns="http://www.w3.org/2000/svg">
  <!-- GitHub Octocat Body -->
  <path d="M60 20c-22 0-40 18-40 40 0 18 12 33 28 38 2 0 4-1 4-4v-8c-12 2-14-5-14-5-2-5-5-6-5-6-4-2 0-2 0-2 5 0 7 5 7 5 4 7 9 9 18 9 8 0 14-5 18-9 0 0 2 3 5 6 0 0 2 3 5 6 6 0 9-5 12-9 2-5 5-6 5-6 0 0 2 3 5 6 0 0 2 3 5 6 3 0 6-3 9-6 0 0 1-1 4-4 16-5 28-20 28-38 0-22-18-40-40-40z" fill="#24292f"/>

  <!-- GitHub Octocat Head -->
  <circle cx="60" cy="35" r="14" fill="#24292f"/>

  <!-- Eyes -->
  <circle cx="54" cy="33" r="2.5" fill="#fff"/>
  <circle cx="66" cy="33" r="2.5" fill="#fff"/>

  <!-- Smile -->
  <path d="M54 39 Q60 42 66 39" stroke="#fff" stroke-width="1.5" fill="none"/>

  <!-- Enhanced Download Arrow -->
  <g transform="translate(60, 75)">
    <!-- Arrow shaft -->
    <rect x="-4" y="-15" width="8" height="16" fill="#0969da" rx="1"/>
    <!-- Arrow head -->
    <path d="M0 5 L-10 -5 L10 -5 Z" fill="#0969da"/>
    <!-- Download indicator bars -->
    <rect x="-8" y="8" width="16" height="2" fill="#0969da" rx="1"/>
    <rect x="-6" y="12" width="12" height="2" fill="#0969da" rx="1"/>
  </g>

  <!-- Enhanced Release Tag Badge -->
  <g transform="translate(75, 25) rotate(15 75 25)">
    <rect x="75" y="25" width="30" height="14" rx="3" ry="3" fill="#eaeef2" stroke="#d1d9e0" stroke-width="1"/>
    <text x="90" y="33" font-family="ui-monospace, SFMono-Regular, 'SF Mono', Monaco, 'Cascadia Code', 'Segoe UI Mono', Roboto Mono, monospace" font-size="7" font-weight="600" fill="#0969da" text-anchor="middle">v1.0.0</text>
  </g>

  <!-- Download progress ring -->
  <circle cx="60" cy="75" r="18" fill="none" stroke="#0969da" stroke-width="2" stroke-dasharray="8 4" opacity="0.3"/>
</svg>
